<?xml version="1.0" encoding="utf-8"?>
<!-- Generator: Adobe Illustrator 19.2.1, SVG Export Plug-In . SVG Version: 6.00 Build 0)  -->
<svg version="1.1" id="Layer_1" xmlns="http://www.w3.org/2000/svg" xmlns:xlink="http://www.w3.org/1999/xlink" x="0px" y="0px"
	 viewBox="0 0 180.5 220.6" style="enable-background:new 0 0 180.5 220.6;" xml:space="preserve">
<style type="text/css">
	.st0{fill:#3F403F;}
	.st1{fill:#0F6735;}
	.st2{fill:#FEC311;}
	.st3{fill:#ED1F35;}
	.st4{fill:#50141D;}
	.st5{fill:#E41E26;}
	.st6{fill:#AF1F24;}
</style>
<g>
	<g id="Layer_1_6_">
		<g>
			<path class="st0" d="M24.9,210.8c-1.7,1.7-4.5,3.3-8.3,3.3c-5,0-9.2-3.4-9.2-9.5c0-6,4-9.5,9.2-9.5c4.1,0,7.4,2.4,7.9,3.2l2.2-6
				c-0.8-0.8-4.2-3.5-10.6-3.5c-9,0-16.2,5.9-16.2,15.9c0,9.9,7.1,15.9,16.2,15.9c6.3,0,9.6-2.6,11.1-4.2L24.9,210.8z"/>
			<path class="st0" d="M48.4,189.3l-6.3,12.3l-6.3-12.3h-8l10.7,18.3v12.4h7.2v-12.4l10.7-18.3H48.4z"/>
			<path class="st0" d="M81.3,210.8c-1.7,1.7-4.5,3.3-8.3,3.3c-5,0-9.2-3.4-9.2-9.5c0-6,4-9.5,9.2-9.5c4.1,0,7.4,2.4,7.9,3.2l2.2-6
				c-0.8-0.8-4.2-3.5-10.6-3.5c-9,0-16.2,5.9-16.2,15.9c0,9.9,7.1,15.9,16.2,15.9c6.3,0,9.6-2.6,11.1-4.2L81.3,210.8z"/>
			<path class="st0" d="M105.3,214.1H94.7v-24.8h-7.2v30.8h17.8V214.1z"/>
			<path class="st0" d="M116.6,189.3h-7.2v30.8h7.2V189.3z"/>
			<path class="st0" d="M146.5,210.8c-1.7,1.7-4.5,3.3-8.3,3.3c-5,0-9.2-3.4-9.2-9.5c0-6,4-9.5,9.2-9.5c4.1,0,7.4,2.4,7.9,3.2l2.2-6
				c-0.8-0.8-4.2-3.5-10.6-3.5c-9,0-16.2,5.9-16.2,15.9c0,9.9,7.1,15.9,16.2,15.9c6.3,0,9.6-2.6,11.1-4.2L146.5,210.8z"/>
			<path class="st0" d="M168.8,189.3h-7.5l-11.6,30.8h7.5l2.2-6.2h11l2.2,6.2h7.9L168.8,189.3z M161.1,208.3l3.8-11.1l3.8,11.1
				H161.1z"/>
		</g>
	</g>
</g>
<g>
	<path class="st1" d="M57.3,141.6c-3.3-0.8-6.1-2.1-9-3.5c-6-3-11.7-6.6-16.9-10.9c-4.7-3.8-8.9-8-12.6-12.7
		c-4.6-5.9-8.4-12.3-10.7-19.5c-1.2-3.6-1.9-7.2-2.2-11c-0.7-9.7,1.7-18.4,7.4-26.2c3.7-5,8.3-8.9,13.7-11.9
		c5.9-3.3,12.2-5.6,18.8-6.7c3.3-0.5,6.7-0.9,10-1.1c3.3-0.2,6.6-0.2,9.9,0c18.1,1.4,34.6,7.5,49.5,18c4.5,3.2,8.8,6.7,12.5,10.8
		c7.3,7.9,13.1,16.8,15.9,27.4c0.7,2.7,1.1,5.4,1.4,8.2c0.8,7.6-0.8,14.8-4.3,21.6c-1.5,2.8-3.3,5.4-5.4,7.7
		c-6.5,7.2-14.7,11.6-23.9,14.2c-3,0.8-6,1.3-9.1,2c-0.3,0.1-0.5,0-0.8,0.1c3-0.9,5.9-1.7,8.9-2.7c6.5-2.3,12.1-5.9,16.7-11.1
		c3.9-4.4,6.5-9.5,7.5-15.4c0.4-2.5,0.7-5.1,0.6-7.6c-0.1-5.4-1.5-10.5-3.7-15.4c0,0-0.1-0.1-0.1-0.1c-0.3,0.9-0.6,1.7-0.8,2.6
		c-0.1,0.4,0.1,0.8,0.2,1.1c1.1,3.1,1.9,6.2,2.2,9.5c0.6,6.2-0.4,12.2-3.2,17.8c-1.9,3.8-4.6,6.9-7.8,9.7
		c-5.6,4.8-12.2,7.6-19.4,9.1c-2.4,0.5-4.7,0.8-7.1,1.2c0-0.1,0-0.1-0.1-0.2c0.3-0.2,0.6-0.4,0.9-0.5c3.8-1.9,7.3-4.3,10.5-7.1
		c6.1-5.2,11-11.3,15.3-18.1c2.4-3.8,4-7.9,5.4-12.2c0.4-1.3,0.8-2.6,1.2-3.9c0.1-0.3,0.2-0.7,0.1-1c-1,1.8-1.9,3.7-2.9,5.5
		c-3.4,6.3-7,12.3-11.5,17.8c-2.4,2.9-4.9,5.7-7.6,8.3c-5.8,5.5-12.4,9.5-20.1,11.5c-3.1,0.8-6.2,1.4-9.3,1.4c-3.5,0-7-0.8-10-2.9
		c-1-0.7-2-1.5-2.7-2.5c-3-3.9-5.5-8.2-7.6-12.6c-0.1-0.1-0.1-0.3-0.2-0.6c2.1,2.2,4.4,4,7,5.4c1.5,0.7,3,1.5,4.6,1.9
		c0.9,0.3,2,0,3-0.1c9.3-1.3,17.9-4.8,25.6-10.3c11.1-7.8,19.2-18,24-30.8c1-2.9,1.7-5.9,2.5-8.8c0.2-0.8,0.2-1.6,0.4-2.5
		c0.3-1.1-0.6-1.7-1.1-2.3c-8.4-9.6-18.7-16.4-30.4-20.9c-5.1-2-10.4-3.4-15.8-4.3c-4.9-0.8-9.9-1.1-14.8-0.9
		c-9,0.4-17.7,2.5-25.5,7.3c-7.6,4.7-13,11.2-15.6,19.9c-1.1,3.8-1.5,7.7-1.2,11.6c0.6,8,3.5,15.1,7.8,21.7c2.6,4,5.7,7.7,9.2,10.9
		c5.9,5.6,12.6,10.1,19.9,13.5c0.2,0.1,0.5,0.2,0.7,0.4C57.1,141.4,57.1,141.4,57.3,141.6z"/>
	<path class="st1" d="M111.1,160.4c1.1-1.3,2.1-2.7,3.3-3.9c4.4-4.3,8.1-9.2,11.4-14.3c0.3-0.4,0.7-0.8,1.1-1.1
		c3.1-2,5.9-4.2,8.5-6.8c5.6-5.8,9.3-12.6,10.9-20.6c0.5-2.3,0.6-4.6,0.7-7c0.3-6-0.9-11.8-2.8-17.5c-1.1-3.2-1.9-6.4-3.4-9.4
		c-0.5-1-0.9-2-1.5-2.9c-1.2-1.5-1.6-3.3-1.9-5.1c-0.9-5.3-2.3-10.5-4.5-15.5c-1.3-3.1-2.9-6.1-4.4-9.1c-0.1-0.2-0.2-0.3-0.3-0.7
		c1.6,0.8,3.1,1.4,4.5,2.1c5.4,2.6,10.4,5.9,15,9.7c7,5.9,12.7,12.8,16.6,21.2c1.9,4.2,3.3,8.5,4.1,13c0.7,3.7,0.9,7.5,0.7,11.3
		c-0.3,6.4-1.8,12.5-4.4,18.4c-1.9,4.3-4.4,8.3-7.3,12c-2.6,3.3-5.6,6.3-8.9,9.1c-9,7.6-19.3,12.5-30.7,15.4c-2.1,0.5-4.3,1-6.5,1.4
		c-0.2,0-0.4,0-0.6,0C110.9,160.3,111,160.4,111.1,160.4z"/>
	<path class="st1" d="M121.2,144.4c-1.3,1.6-2.3,3.2-3.5,4.6c-1.8,2.1-3.6,4.2-5.6,6.1c-7.3,7.2-15.7,12.7-25.5,15.7
		c-2.9,0.9-5.9,1.4-8.8,1.9c-2.5,0.4-5,0.5-7.6,0.5c-6.8-0.2-13.3-1.8-19.5-4.8c-6.5-3.1-12-7.5-16.8-12.8
		c-5.1-5.8-9-12.4-11.8-19.6c-1.9-4.9-3.3-9.9-4.3-15c-0.3-1.6-0.5-3.3-0.8-5.2c1.3,1.5,2.3,2.8,3.5,4c2.3,2.3,4.5,4.6,6.9,6.8
		c3.5,3.2,7.2,6,11.3,8.4c2.3,1.4,4.2,3.2,6.2,4.9c4.7,3.8,10,6.7,15.9,8.2c3.5,0.9,7,1.7,10.6,2.1c4.2,0.5,8.5,0.6,12.7,0.7
		c3.4,0.1,6.7,0,10.1-0.2c9.2-0.4,18.1-2.2,26.5-6C120.8,144.5,120.9,144.5,121.2,144.4z"/>
	<path class="st1" d="M62.1,57.8c-0.8,1.4-1.6,2.5-2.2,3.7c-4.2,7.4-7.2,15.3-8.7,23.7c-0.7,3.5-1.1,7-1.4,10.5
		c-0.3,2.7-0.4,5.3-0.3,8c0.3,11,2.6,21.4,8,31.1c1.1,2,2.4,3.9,3.7,6c-1.4-0.7-2.8-1.3-4.2-1.9c-5.5-2.6-10.7-5.8-15.3-9.8
		c-2.6-2.2-5-4.7-7.4-7.1c-1-1-1.2-2.3-1.3-3.6c-0.5-4.6-0.8-9.3-0.6-13.9c0.1-3.2,0.4-6.3,0.8-9.5c0.7-6.5,2.1-12.8,4.1-19
		c1.5-4.6,3.3-9,5.4-13.3c0.1-0.3,0.4-0.6,0.7-0.7c3.5-1.5,7.1-2.6,10.9-3.1C56.7,58.5,59.3,58.2,62.1,57.8z"/>
	<path class="st1" d="M47.5,36.7c2.9-2.2,5.7-4.1,8.6-5.7c4.8-2.6,9.8-4.6,15.1-5.8c2.4-0.5,4.8-0.8,7.2-1c1.9-0.2,3.8-0.2,5.8-0.2
		c5.8,0.2,11.5,1.4,16.9,3.7c6.2,2.6,11.7,6.3,16.5,11c6.1,6,10.7,13,14.1,20.8c1.9,4.4,3.3,9,4.5,13.7c0,0.1,0,0.3,0,0.5
		c-8.2-11.3-18.6-19.8-30.9-26.4c3.2-0.6,6.2-1.2,9.2-1.7c-0.6-1.5-1.4-2.9-2.5-4.1c-3.3-3.8-6.9-7.1-11.2-9.7
		c-4.4-2.7-9.2-4.5-14.3-5.4c-3.1-0.6-6.3-0.7-9.4-0.5c-4.9,0.3-9.7,1.5-14.3,3.4c-3.9,1.6-7.5,3.7-10.8,6.3c-0.9,0.7-2,0.6-2.9,0.8
		C48.5,36.6,48.1,36.6,47.5,36.7z"/>
	<path class="st1" d="M154.1,141.1c-0.9,1.7-1.8,3.5-2.8,5.2c-7,11.6-17.2,19-30,22.7c-8.1,2.3-16.4,2.8-24.7,1.8
		c-0.5-0.1-1.1-0.1-1.8-0.2c1.3-0.7,2.6-1.2,3.7-1.9c2.9-1.9,5.8-3.8,8.7-5.6c0.7-0.4,1.5-0.5,2.3-0.7c9.3-1.3,18.1-4.1,26.4-8.4
		c5.2-2.7,10-5.8,14.4-9.7c1.2-1.1,2.4-2.1,3.6-3.2C154,141.1,154,141.1,154.1,141.1z"/>
	<path class="st1" d="M25.9,149.6C8.1,136.7,3.2,114.9,6.5,96.8c0.8,1.8,1.5,3.7,2.4,5.5c1.3,2.6,2.7,5.2,4.2,7.6
		c0.8,1.3,1.1,2.6,1.3,4.1c0.4,3.2,0.8,6.5,1.4,9.7c1.1,5.8,2.8,11.3,5.3,16.6C22.6,143.5,24.3,146.6,25.9,149.6z"/>
	<path class="st1" d="M106.8,27c8.3-0.7,15.8,0.8,22.7,5.2c7.7,4.9,13,13.2,15.5,21.6c-1.1-0.7-2.1-1.4-3.1-2.1
		c-4.6-3-9.5-5.5-14.6-7.6c-0.4-0.2-0.8-0.4-1-0.8c-4.1-5.4-8.6-10.3-14.5-13.7c-1.4-0.8-2.8-1.5-4.2-2.3
		C107.3,27.3,107.2,27.2,106.8,27z"/>
	<path class="st1" d="M63.8,35.6c1.3-0.9,2.7-1.9,4-2.7c4-2.5,8.2-4.6,12.8-5.8c1.2-0.3,2.5-0.1,3.8,0c4.2,0.5,8.3,1.7,12.1,3.5
		c2.5,1.2,4.8,2.6,7.2,4.4c-0.9-0.1-1.5-0.1-2.1-0.2c-3.2-0.4-6.3-0.1-9.4,0.4c-3.1,0.5-6.1,1.7-9,3c-0.3,0.2-0.8,0.2-1.2,0.1
		c-3.8-0.7-7.5-1.5-11.3-2.1c-2.2-0.3-4.5-0.4-6.8-0.6C63.9,35.8,63.8,35.7,63.8,35.6z"/>
	<path class="st1" d="M30.5,114c-0.4-1.3-0.9-2.6-1.2-3.9c-0.7-3.3-1.6-6.7-1.9-10.1c-0.4-3.8-0.5-7.7-0.3-11.5
		c0.3-6,1.3-11.9,3.2-17.6c0.2-0.6,0.7-1.2,1.2-1.6c2.5-2.3,5.3-4.3,8.4-5.8c0.1,0,0.1,0,0.3-0.1C32.6,79.5,29.6,96.4,30.5,114z"/>
	<path class="st1" d="M112.3,44.1c-3.1,0.6-6.1,1.3-9.1,1.9c-0.3,0.1-0.8,0-1.1-0.1c-5.1-2.5-10.4-4.5-15.9-6.1
		c-0.3-0.1-0.5-0.1-1-0.3c0.6-0.3,1-0.5,1.5-0.7c4.7-1.8,9.6-2.6,14.6-2.2c1.8,0.1,3.6,0.7,5.3,1.1c0.1,0,0.3,0.1,0.3,0.2
		C108.9,39.7,111,41.5,112.3,44.1z"/>
	<path class="st1" d="M37.1,39.1c5.6-7.1,22.6-14.7,32.9-14.5c-5,1.2-9.5,3-13.8,5.3c-3.6,1.9-6.9,4.2-10.1,6.7
		c-0.6,0.5-1.6,0.6-2.4,0.8C41.5,38,39.3,38.5,37.1,39.1z"/>
	<path class="st1" d="M26.2,75.6c-2.7,12.5-2.6,24.7,1.1,37C19.8,100.4,19.2,86,26.2,75.6z"/>
	<path class="st1" d="M53.2,36c6.5-4.9,13.6-7.9,21.6-8.8c-0.8,0.4-1.7,0.8-2.5,1.2c-3.4,1.6-6.6,3.7-9.6,5.9
		c-0.1,0.1-0.3,0.3-0.4,0.4c-0.7,0.7-1.5,1.1-2.6,1.1c-1.9,0-3.8,0.1-5.7,0.2C53.7,36.1,53.5,36,53.2,36z"/>
	<path class="st1" d="M60.3,64.2c1.2-1.9,2.3-3.8,3.5-5.7c0.2-0.3,0.6-0.5,1-0.5c2.6,0.1,5.3,0.2,7.9,0.4c-4.3,1.6-8.4,3.5-12.3,5.9
		C60.4,64.3,60.3,64.2,60.3,64.2z"/>
</g>
<g>
	<circle class="st2" cx="134.9" cy="44.6" r="8.5"/>
	<circle class="st2" cx="93.7" cy="139.2" r="8.5"/>
	<circle class="st2" cx="44" cy="134.4" r="8.5"/>
	<circle class="st2" cx="45.3" cy="86.7" r="8.5"/>
	<circle class="st2" cx="24.2" cy="68.5" r="8.5"/>
	<circle class="st2" cx="122.5" cy="64.4" r="8.5"/>
	<circle class="st2" cx="137.3" cy="127.8" r="8.5"/>
</g>
<g>
	<circle class="st3" cx="151.1" cy="88.3" r="8.5"/>
	<circle class="st3" cx="112.3" cy="151.1" r="8.5"/>
	<circle class="st3" cx="115.8" cy="114.3" r="8.5"/>
	<circle class="st3" cx="58.4" cy="155.6" r="8.5"/>
	<circle class="st3" cx="36" cy="50.9" r="8.5"/>
	<circle class="st3" cx="27.5" cy="117.7" r="8.5"/>
</g>
<g>
	<path class="st4" d="M54.9,41.4c0,0-6.2,4.3-3,6.7c3.3,2.4,2.5,4.9,9.8,0.7s13.4-7.7,15.4-12.2s0.9-4.6,0.9-4.6L54.9,41.4z"/>
	<path class="st4" d="M87.1,32c0,0,6.4,9.7,13.7,14.5c7.3,4.7,11.4,6.7,14.2,6.4s4-3,4.5-10.4s-10.4-6.5-16.9-7.3S87.2,30.5,87.1,32
		z"/>
	<path class="st5" d="M44.2,6c2.5-2.8,14.5-6.9,25.2,2.9S80.5,22,80.5,22s2.2,3.6,1.8,6c-0.4,2.4-3.6,5.3-4.2,7.1
		c-0.7,1.8-10.2,6.2-15.1,7.6S51.8,46,52.6,48.2c0.9,2.2,4.9,2.4,4.9,2.4s-3.6,1.8-10-5.3s-4.9-10.9-4.5-12.7
		c0.4-1.8,2.9-5.6,3.1-10.7C46.4,16.9,40,10.6,44.2,6z"/>
	<path class="st5" d="M85.4,26c0,0,1-9.8,9.5-16.8s16-11,21.2-8.5s6.4,9.3,6.4,11s-1.6,6.8-0.9,8.6c0.7,1.8,4.5,4.9,3.6,9.5
		S118.3,49,118.3,49s0.3-2.1-1.2-2.8c-1.5-0.7-4.2,0.1-8.9-1c-4.7-1.2-18.5-7.4-21.2-10.7S85.4,26,85.4,26z"/>
	<path class="st5" d="M79.6,30.9l6.2,2.1c0,0,0.6,10.8-1.2,17.5C82.8,57.1,81.1,70.9,82,79s3.9,16.9,4.7,23.6
		c0.9,6.7,1.3,9.1,1.3,9.1s-0.9-3.9-8.6-6.4s-8.9-1.5-8.9-1.5s-4.2-13.9-0.7-28.9s8-22.6,8.8-29.2S79.6,30.9,79.6,30.9z"/>
	<path class="st5" d="M84.8,34.6c0,0-0.4,19.4,1.5,30.1s3,15.6,3.4,21.4c0.4,5.8,0.9,16.8,0.9,16.8s2.8-6.1,5.2-8.3
		c2.4-2.2,7.1-5.2,7-7.7c-0.1-2.5-2.1-10.5-4.7-17.4c-2.7-6.8-5.6-15-6.5-20.8C90.6,42.9,90.3,30,90.3,30L84.8,34.6z"/>
	<path class="st6" d="M82.8,22.1c3.5-0.4,10,1.3,10.2,5.2c0.4,7.2-5.2,8.2-8.9,8.2s-7.7-0.9-8-4.6C75.9,27.2,75.7,23,82.8,22.1z"/>
</g>
</svg>
