<?xml version="1.0" encoding="utf-8"?>
<!-- Generator: Adobe Illustrator 19.2.1, SVG Export Plug-In . SVG Version: 6.00 Build 0)  -->
<svg version="1.1" id="Vertical" xmlns="http://www.w3.org/2000/svg" xmlns:xlink="http://www.w3.org/1999/xlink" x="0px" y="0px"
	 viewBox="0 0 132 132" style="enable-background:new 0 0 132 132;" xml:space="preserve">
<style type="text/css">
	.st0{fill:#4C83B4;}
	.st1{fill:#94B544;}
	.st2{fill:#3D3E3B;}
</style>
<g>
	<g>
		<path class="st0" d="M40.8,44.2c-0.3,0.2-0.3,1.4-0.3,1.4v2.4c0,0,0,0.9-0.4,1c-0.4,0.1-0.7-0.7-0.7-0.7l-4.6-8.7
			c0,0-0.5-0.8-0.3-1.3c0.1-0.4,0.6-1.1,0.6-1.1l4.2-5.7c0,0,0.5-0.7,1-0.4c0.4,0.2,0.3,1.1,0.3,1.1s-0.2,2.1,0.3,3.2
			c0.5,1.1,0.9,1.5,0.9,1.5c7.1,7,17.4,11.6,29.1,11.6c11,0,21-4.2,28.5-11c0.5-0.4,0.7-0.6,1-0.5c0.4,0.2,0.4,1.2,0.4,1.2v3
			c0,0,0,0.9-0.3,1.5c-0.2,0.7-0.6,1.1-1.1,1.5C91.8,51,81.9,55.2,70.8,55.2c-11.7,0-22.1-5-28.4-10.8
			C42.4,44.5,41.5,43.7,40.8,44.2z"/>
		<path class="st0" d="M100.1,62.6c0.3,0.2,0.3,1.4,0.3,1.4v2.4c0,0,0,0.9,0.4,1c0.4,0.1,0.7-0.7,0.7-0.7l4.6-8.7
			c0,0,0.5-0.8,0.3-1.3c-0.1-0.4-0.6-1.1-0.6-1.1l-4.2-5.7c0,0-0.5-0.7-1-0.4c-0.4,0.2-0.3,1.1-0.3,1.1s0.2,2.1-0.3,3.2
			c-0.5,1.1-0.9,1.5-0.9,1.5c-7.1,7-17.4,11.6-29.1,11.6c-11,0-21-4.2-28.5-11c-0.5-0.4-0.7-0.6-1-0.5c-0.4,0.2-0.4,1.2-0.4,1.2v3
			c0,0,0,0.9,0.3,1.5c0.2,0.7,0.6,1.1,1.1,1.5c7.5,6.9,17.5,11.1,28.6,11.1c11.7,0,22.1-5,28.4-10.8C98.5,62.9,99.4,62.1,100.1,62.6
			z"/>
		<path class="st0" d="M106.5,25.2c0.1-0.5-0.3-1.3-0.3-1.3l-4.6-8.7c0,0-0.3-0.8-0.7-0.7c-0.4,0.1-0.4,1-0.4,1v2.4
			c0,0,0,1.2-0.3,1.4c-0.2,0.1-0.9-0.1-1.6-0.3c-8.9-3.6-21.2-8.7-26-10.7c-1.3-0.5-1.7-0.5-2-0.5c-0.3,0-0.8,0-2.1,0.5
			c-4.5,1.9-15.9,6.6-26.3,10.8c-0.5,0.2-0.8,0.3-1.2,0.9s-0.4,1.4-0.4,1.4v4c0,0-0.1,1.6,0.3,1.7c0.5,0.1,0.8-0.5,1.4-1
			c7.5-6.7,17.4-10.7,28.2-10.7c11.1,0,21.1,4.2,28.7,11.2c0.4,0.4,0.7,0.5,0.9,1.3c0.2,0.7,0.3,1.7,0.3,1.7l0.1,1.7
			c0,0-0.1,1,0.3,1.1c0.5,0.2,1-0.4,1-0.4l4.2-5.7C105.9,26.3,106.4,25.7,106.5,25.2z"/>
		<path class="st0" d="M34.7,75.2c-0.1,0.5,0.3,1.3,0.3,1.3l4.6,8.7c0,0,0.3,0.8,0.7,0.7c0.4-0.1,0.4-1,0.4-1v-2.4
			c0,0,0-1.2,0.3-1.4c0.2-0.1,0.9,0.1,1.6,0.3c8.9,3.6,21.2,8.7,26,10.7c1.3,0.5,1.7,0.5,2,0.5c0.3,0,0.8,0,2.1-0.5
			c4.5-1.9,15.9-6.6,26.3-10.8c0.5-0.2,0.8-0.3,1.2-0.9c0.4-0.6,0.4-1.4,0.4-1.4v-4c0,0,0.1-1.6-0.3-1.7c-0.5-0.1-0.8,0.5-1.4,1
			C91.3,81,81.4,85,70.6,85c-11.1,0-21.1-4.2-28.7-11.2c-0.4-0.4-0.7-0.5-0.9-1.3c-0.2-0.7-0.3-1.7-0.3-1.7l-0.1-1.7
			c0,0,0.1-1-0.3-1.1c-0.5-0.2-1,0.4-1,0.4l-4.2,5.7C35.3,74.1,34.8,74.8,34.7,75.2z"/>
		<path class="st1" d="M21.5,83.3c0,0-0.1,1.9,1.3,3.5c1.3,1.6,3.2,2.3,3.2,2.3l41.3,10.8c0,0,2,0.5,3.7,0.5c1.7,0,2.7-0.5,2.7-0.5
			l16.2-5.9c0,0,0.6-0.2,0.4-0.7c-0.1-0.5-0.7-0.3-0.7-0.3l-15.8,4.9c0,0-1.3,0.4-2.8,0.4c-1.6,0-2.5-0.4-2.5-0.4l-33-11.7
			c0,0-1.7-0.6-2.5-1.6c-1-1.2-1.1-2.4-1.1-2.4V20.6c0,0,0-1.2,1.1-2.4c0.8-0.9,2.5-1.6,2.5-1.6l33-11.7c0,0,0.9-0.4,2.5-0.4
			c1.6,0,2.8,0.4,2.8,0.4l15.8,4.9c0,0,0.6,0.2,0.7-0.3c0.1-0.5-0.4-0.7-0.4-0.7L73.7,2.9c0,0-1-0.5-2.7-0.5c-1.7,0-3.7,0.5-3.7,0.5
			L26,13.7c0,0-1.9,0.6-3.2,2.3c-1.4,1.7-1.3,3.5-1.3,3.5V83.3z"/>
	</g>
	<g>
		<path class="st2" d="M26.9,126.9c-1.3,1.4-3.6,3.1-7.6,3.1c-6,0-10.6-4.2-10.6-10.7c0-6.5,4.6-10.7,10.6-10.7
			c3.9,0,6.2,1.6,7.3,2.7l-1.2,2.3c-0.8-1-3.1-2.5-6-2.5c-4.5,0-7.7,3.2-7.7,8.1c0,4.9,3.3,8.1,7.7,8.1c2.7,0,4.8-1,6.2-2.5
			L26.9,126.9z"/>
		<path class="st2" d="M44.9,108.9l-7.2,12v8.7h-2.9V121l-7.2-12h3.3l5.4,9.5l5.4-9.5H44.9z"/>
		<path class="st2" d="M62.9,126.9c-1.3,1.4-3.6,3.1-7.6,3.1c-6,0-10.6-4.2-10.6-10.7c0-6.5,4.6-10.7,10.6-10.7
			c3.9,0,6.2,1.6,7.3,2.7l-1.2,2.3c-0.8-1-3.1-2.5-6-2.5c-4.5,0-7.7,3.2-7.7,8.1c0,4.9,3.3,8.1,7.7,8.1c2.7,0,4.8-1,6.2-2.5
			L62.9,126.9z"/>
		<path class="st2" d="M76.1,129.6H65.9v-20.7h2.9v18.2h7.3V129.6z"/>
		<path class="st2" d="M81.6,129.6h-2.9v-20.7h2.9V129.6z"/>
		<path class="st2" d="M103.1,126.9c-1.3,1.4-3.6,3.1-7.6,3.1c-6,0-10.6-4.2-10.6-10.7c0-6.5,4.6-10.7,10.6-10.7
			c3.9,0,6.2,1.6,7.3,2.7l-1.2,2.3c-0.8-1-3.1-2.5-6-2.5c-4.5,0-7.7,3.2-7.7,8.1c0,4.9,3.3,8.1,7.7,8.1c2.7,0,4.8-1,6.2-2.5
			L103.1,126.9z"/>
		<path class="st2" d="M123.3,129.6H120l-2.1-5.4H109l-2.1,5.4h-3.1l8.4-20.8h2.5L123.3,129.6z M117.1,121.8l-3.6-9.3l-3.6,9.3
			H117.1z"/>
	</g>
</g>
</svg>
