<?xml version="1.0" encoding="utf-8"?>
<!-- Generator: Adobe Illustrator 21.1.0, SVG Export Plug-In . SVG Version: 6.00 Build 0)  -->
<svg version="1.1" id="Layer_1" xmlns="http://www.w3.org/2000/svg" xmlns:xlink="http://www.w3.org/1999/xlink" x="0px" y="0px"
	 viewBox="0 0 137.5 137.5" style="enable-background:new 0 0 137.5 137.5;" xml:space="preserve">
<style type="text/css">
	.st0{fill:#3D3E3B;}
	.st1{filter:url(#Adobe_OpacityMaskFilter);}
	.st2{mask:url(#SVGID_1_);fill:#F23333;}
	.st3{filter:url(#Adobe_OpacityMaskFilter_1_);}
	.st4{mask:url(#SVGID_2_);}
	.st5{fill:#F96767;}
</style>
<g>
	<path class="st0" d="M27.9,134c-1.4,1.5-3.8,3.2-7.9,3.2c-6.3,0-11.1-4.4-11.1-11.2c0-6.8,4.9-11.2,11.1-11.2
		c4.1,0,6.5,1.7,7.7,2.9l-1.3,2.5c-0.8-1.1-3.3-2.6-6.3-2.6c-4.7,0-8.1,3.4-8.1,8.4c0,5.1,3.4,8.5,8.1,8.5c2.9,0,5.1-1.1,6.5-2.6
		L27.9,134z"/>
	<path class="st0" d="M46.7,115.2l-7.5,12.6v9.1h-3v-9.1l-7.5-12.6H32l5.6,10l5.7-10H46.7z"/>
	<path class="st0" d="M65.6,134c-1.4,1.5-3.8,3.2-7.9,3.2c-6.3,0-11.1-4.4-11.1-11.2c0-6.8,4.9-11.2,11.1-11.2
		c4.1,0,6.5,1.7,7.7,2.9l-1.3,2.5c-0.8-1.1-3.3-2.6-6.3-2.6c-4.7,0-8.1,3.4-8.1,8.4c0,5.1,3.4,8.5,8.1,8.5c2.9,0,5.1-1.1,6.5-2.6
		L65.6,134z"/>
	<path class="st0" d="M79.4,136.8H68.7v-21.7h3v19.1h7.6V136.8z"/>
	<path class="st0" d="M85.1,136.8h-3v-21.7h3V136.8z"/>
	<path class="st0" d="M107.7,134c-1.4,1.5-3.8,3.2-7.9,3.2c-6.3,0-11.1-4.4-11.1-11.2c0-6.8,4.9-11.2,11.1-11.2
		c4.1,0,6.5,1.7,7.7,2.9l-1.3,2.5c-0.8-1.1-3.3-2.6-6.3-2.6c-4.7,0-8.1,3.4-8.1,8.4c0,5.1,3.4,8.5,8.1,8.5c2.9,0,5.1-1.1,6.5-2.6
		L107.7,134z"/>
	<path class="st0" d="M128.8,136.8h-3.4l-2.2-5.7h-9.3l-2.2,5.7h-3.2l8.8-21.7h2.7L128.8,136.8z M122.3,128.6l-3.8-9.7l-3.8,9.7
		H122.3z"/>
</g>
<defs>
	<filter id="Adobe_OpacityMaskFilter" filterUnits="userSpaceOnUse" x="22.3" y="9.8" width="69" height="98.1">
		<feFlood  style="flood-color:white;flood-opacity:1" result="back"/>
		<feBlend  in="SourceGraphic" in2="back" mode="normal"/>
	</filter>
</defs>
<mask maskUnits="userSpaceOnUse" x="22.3" y="9.8" width="69" height="98.1" id="SVGID_1_">
	<g class="st1">
		<path d="M118.6,58.9c5.1-3,8.2-11.6,8.3-12l0.3-1l-1-0.3c-0.1,0-0.7-0.2-1.6-0.2c-0.5,0-1,0.1-1.4,0.2c-0.3,0-1.2-1-1.6-2
			c0-0.9,1.9-4.3,3-6.3c0.5-1,1.1-2,1.5-2.7c1.6-3.2-0.3-10.2-0.5-11l-0.5-1.6l-1.2,1.2c-0.1,0.1-10,10.1-11.4,11.6
			c-1.2,1.2-3.7,2.5-5,2.8c0-0.7,0.1-2.3,0.7-6c0.2-1,0.2-1.2-0.1-1.6l-0.3-0.3l-0.5,0c-0.3,0-0.8,0.1-1,0.8c-0.3,0.9-3.7,4.3-6.8,6
			c-1.8,1-3.5,3.2-4.8,5.1v-4.6c0-0.3,0-0.9,0.1-1.5c0.1-1.4,0.2-3.3,0.1-5c-0.1-1.3-0.6-3.1-1.1-4.8c-0.5-1.6-0.9-3.2-0.9-4
			c0-1.4,0.8-4.2,1.1-5.1l0.8-2.5l-2.2,1.4c-0.1,0-1.6,1-2.7,2c-0.4,0.4-0.8,0.8-1.3,1.3c-0.7,0.8-1.4,1.6-2.5,2.2
			c-1.1,0.6-1.7,1.7-2.2,2.7c-0.6,1.2-0.9,1.8-1.6,1.9c-0.1,0-0.2,0-0.2,0c-0.5,0-0.5,0-0.9-1.5c-0.2-0.7-0.4-1.6-0.9-2.6
			c-0.9-2.1-2.7-4.5-4.6-6.8c-1.1-1.4-2.1-2.7-2.8-3.8c-2-3.1-4.6-10.6-4.6-10.7l-2.4-7l0.5,7.3c0,0.1,0.6,8.2,0.6,10.4
			c0,1.3-0.9,4-1.7,6.2c-0.5,1.4-0.9,2.7-1.1,3.7c-0.2,1-0.3,2.2-0.3,3.5c-0.1,1.9-0.1,4.4-0.9,5.1c-0.3,0.3-0.6,0.4-1,0.4
			c-0.5,0-1.2-0.2-1.9-0.5c-0.6-0.2-1.3-0.5-2.1-0.7c-0.6-0.1-1.4-0.4-2.2-0.6c-2-0.5-3.3-0.9-4-0.9c-0.8,0-1,0.4-1.2,0.7
			c-0.1,0.2-0.2,0.7,0.3,1.3c0.2,0.2,0.4,1,0.7,2c0.4,1.6,1.2,4.4,3,8.6c2.1,4.8,6.8,10.6,9.9,14.4c0.6,0.7,1.2,1.4,1.6,2
			c-0.7-0.1-1.4-0.2-1.7-0.2c-1.2-0.8-7.8-5.1-12.9-5.1c-5,0-9.8-2.2-9.9-2.2l-2.3-1.1l1,2.3c0.8,1.9,2.8,7.6,0.8,9.1
			c-0.2,0.1-0.7,0.4-2.3,0.4c-3.3,0-8.1-1.2-10.5-1.7c-0.6-0.1-1-0.2-1.2-0.3l-0.1,0l-0.1,0h-0.7l-0.2,0.7
			c-0.4,1.2,3.9,9.2,6.1,10.7c1.7,1.1,2.5,1.8,3.2,2.4c1,0.8,1.7,1.3,3.6,2.3c1.5,0.8,2.1,1.3,2.4,1.5c-0.3,0.2-0.7,0.4-1.1,0.6
			c-1,0.5-2.1,1-2.9,2c-0.9,1.1-3.2,1.7-6.1,1.7c-0.5,0-0.8,0-0.8,0l-3.9-0.3l3.3,2.1c0,0,3.3,2,4.9,3.6c1.7,1.7,7.6,3.4,11.8,3.4
			c1,0,1.8-0.1,2.6-0.2c1.1-0.2,2.2-0.4,3.3-0.4c2.5,0,4.4,0.7,5.3,1.3c0.4,0.3,0.8,0.4,1.3,0.4c0.9,0,1.8-0.5,2.9-1.1
			c1.6-0.9,3.9-2.2,7.5-2.7c1-0.1,1.7-0.2,2.4-0.2c0.2,0,0.4,0,0.5,0c0,0-0.1,0.1-0.1,0.1c-1,0.5-5,2.9-4.7,5.6c0.1,1.1-2.5,5-5,7.9
			l-2.7,3.2l3.9-1.7c0.5-0.2,4.9-2.2,6.5-4c0.6-0.7,3.3-1.5,5.4-2.1c2.4-0.7,4.6-1.4,5.9-2.2c1.5-1,2.2-2.3,2.6-3.1
			c0-0.1,0.1-0.1,0.1-0.2c0.1,0.7,0.1,1.9,0,3l-0.5,5.3l2.3-4.8c0.2-0.4,2-4.2,1.8-6.7c0-0.3,0.1-0.4,0.1-0.4
			c0.1-0.1,0.4-0.2,0.6-0.2c0.7,0,1.6,0.5,2,1.5c1,2.6,5.4,8.5,8.4,12.5c0.4,0.5,0.7,1,1,1.4c2.5,3.4,4.4,11.1,4.5,11.1l0.8,3.2
			l1-3.1c0.1-0.4,0.5-1.6,0.8-2.1c0.2-0.4,0.8-1,1.1-1.3l0.5-0.4l-0.2-0.6c-0.1-0.3-2.7-7.5-5.3-11c-0.5-0.7-1.1-1.4-1.7-2.2
			c-2.4-3.1-5.1-6.6-6-8.6c-0.1-0.2-0.1-0.3-0.1-0.4c0.3,0.1,0.9,0.3,1.5,0.8c1,0.7,1.8,1.1,2.6,1.1c0.9,0,1.4-0.5,1.6-1l0.1-0.3
			l-0.1-0.3c0,0-0.1-0.4-0.1-0.9c0.1,0,0.2,0,0.3,0c0.6,0,1.3,0.1,2.1,0.1c0.9,0.1,2,0.1,2.9,0.1c0.3,0,0.6,0,0.9,0
			c3.4-0.2,7.6-5.2,8.4-6.6c0.4-0.6,2.3-2.2,3.6-3.2c2.4-1.9,2.8-2.2,2.5-3c-0.1-0.4-0.5-0.7-1-0.7c-0.1,0-0.2,0-0.4,0.1
			c-0.1,0-0.4,0.1-0.9,0.1c-1.4,0-3.5-0.4-4.5-0.8c-0.4-0.2-0.7-0.4-1.1-0.7c-0.6-0.5-1.4-1.1-3.1-1.3c-0.1,0-0.2,0-0.4,0
			c-0.9,0-2,0.2-3.1,0.6C110.5,65.8,115.5,60.7,118.6,58.9z"/>
	</g>
</mask>
<path class="st2" d="M22.3,90.8c0,0-0.1,1.9,1.3,3.6c1.3,1.6,3.2,2.3,3.2,2.3l41.4,10.8c0,0,2,0.5,3.7,0.5c1.7,0,2.7-0.5,2.7-0.5
	l16.3-5.9c0,0,0.6-0.2,0.4-0.7c-0.1-0.5-0.7-0.3-0.7-0.3l-15.9,4.9c0,0-1.3,0.4-2.8,0.4s-2.5-0.4-2.5-0.4L36.3,93.6
	c0,0-1.7-0.6-2.5-1.6c-1-1.2-1.1-2.4-1.1-2.4V28c0,0,0-1.2,1.1-2.4c0.8-0.9,2.5-1.6,2.5-1.6l33.1-11.8c0,0,0.9-0.4,2.5-0.4
	s2.8,0.4,2.8,0.4l15.9,4.9c0,0,0.6,0.2,0.7-0.3c0.1-0.5-0.4-0.7-0.4-0.7l-16.3-5.9c0,0-1-0.5-2.7-0.5c-1.7,0-3.7,0.5-3.7,0.5
	L26.9,21c0,0-1.9,0.6-3.2,2.3c-1.4,1.7-1.3,3.6-1.3,3.6V90.8z"/>
<defs>
	<filter id="Adobe_OpacityMaskFilter_1_" filterUnits="userSpaceOnUse" x="27.2" y="0.5" width="98.8" height="110.7">
		<feFlood  style="flood-color:white;flood-opacity:1" result="back"/>
		<feBlend  in="SourceGraphic" in2="back" mode="normal"/>
	</filter>
</defs>
<mask maskUnits="userSpaceOnUse" x="27.2" y="0.5" width="98.8" height="110.7" id="SVGID_2_">
	<g class="st3">
		<g>
			<path d="M54.8,87.1H51V62h-5.5v-2.9h9.3V87.1z"/>
			<path d="M71.7,87.5c-5.3,0-8.2-2.9-9.2-4.7l2.2-2.3c1.2,2.1,3.8,3.7,7,3.7c3.2,0,6.5-1.9,6.5-6.2c0-4.3-3.3-6.2-6.5-6.2
				c-1.8,0-3.8,0.5-4.9,1.5l-2-1.2l2.4-13.1h14.1v3.2H70l-1.5,7.4c1.1-0.5,2.4-0.7,4-0.7c4.5,0,9.5,3,9.5,9.2
				C82,84.2,76.9,87.5,71.7,87.5z"/>
			<path d="M96.2,87.5c-7.5,0-10.7-7.1-10.7-14.4c0-7.3,3.2-14.4,10.7-14.4c7.5,0,10.7,7.1,10.7,14.4
				C106.9,80.4,103.8,87.5,96.2,87.5z M96.2,62c-4.5,0-6.7,4.6-6.7,11c0,6.4,2.2,11,6.7,11s6.7-4.7,6.7-11
				C103,66.6,100.7,62,96.2,62z"/>
		</g>
	</g>
</mask>
<g class="st4">
	<path class="st5" d="M41.5,49.6c0,0,5,2.3,10.3,2.3s12.6,5,12.6,5s3.2,0.6,3.8,0.2s-9.2-10.3-12.4-17.6c-3.2-7.3-3-9.9-3.9-10.9
		c-0.9-0.9,3.8,0.6,6.2,1.1s4.1,2.1,5.8,0.6c1.7-1.5,0.9-6.8,1.5-9.2s2.8-7.9,2.8-10.1S67.5,0.5,67.5,0.5s2.6,7.7,4.7,10.9
		s6,7.3,7.3,10.5c1.3,3.2,0.8,4.9,3,4.7c2.3-0.2,2.3-3.8,4.1-4.7c1.9-0.9,2.8-2.6,3.9-3.6c1.1-0.9,2.6-1.9,2.6-1.9s-1.1,3.6-1.1,5.4
		s1.9,6.4,2.1,8.8s-0.2,5.3-0.2,6.4s0,8.3,0,8.3s3-6.2,6.2-7.9c3.2-1.7,6.9-5.3,7.3-6.6c0.4-1.3-1.7,7.9-0.4,7.9
		c1.3,0,4.7-1.7,6.2-3.2c1.5-1.5,11.4-11.6,11.4-11.6s2.1,7.3,0.6,10.3c-1.5,3-4.9,8.6-4.5,9.8c0.4,1.1,1.7,3,2.8,2.6
		c1.1-0.4,2.4,0,2.4,0s-3,8.6-7.9,11.4s-14.4,13.5-14.4,13.5s4.7-2.3,6.9-2.1c2.3,0.2,2.4,1.3,3.9,1.9s4.7,1.1,6,0.8
		c1.3-0.4-4.9,3.9-5.8,5.4c-0.9,1.5-4.9,6-7.7,6.2s-7.1-0.8-7.1,0.2s0.1,1.7,0.1,1.7s-0.5,1.2-2.8-0.5c-2.3-1.7-3.7-1.3-2.8,0.8
		c1.2,2.6,5.2,7.5,7.8,10.9c2.6,3.4,5.2,10.7,5.2,10.7s-1,0.8-1.3,1.5c-0.4,0.7-0.9,2.2-0.9,2.2s-2-7.9-4.6-11.5s-8.1-10.8-9.3-13.7
		c-1.1-2.8-4.8-2.7-4.6-0.5s-1.7,6.2-1.7,6.2s0.4-4.3-0.8-4.5c-1.1-0.2-1.1,2.3-3.6,3.9s-9.9,2.8-11.4,4.5c-1.5,1.7-6.2,3.8-6.2,3.8
		s5.4-6.4,5.3-8.6s4.3-4.7,4.3-4.7s3.5-2.6-3.4-1.7c-6.9,0.9-9.2,4.8-10.9,3.6c-1.6-1.1-5.1-2-9.4-1.1c-4.3,0.9-11.8-1.2-13.5-2.9
		c-1.7-1.7-5.1-3.8-5.1-3.8s5.6,0.4,7.7-2c2.1-2.4,7.9-2.2,1.4-5.5c-3.2-1.6-2.8-2-6.7-4.6c-2.2-1.5-6.1-9.7-5.7-9.6
		c1.5,0.3,12.4,3.3,14.8,1.4C45,57.6,41.5,49.6,41.5,49.6z"/>
</g>
</svg>
