<?xml version="1.0" encoding="utf-8"?>
<!-- Generator: Adobe Illustrator 25.0.0, SVG Export Plug-In . SVG Version: 6.00 Build 0)  -->
<svg version="1.1" id="Horizontal" xmlns="http://www.w3.org/2000/svg" xmlns:xlink="http://www.w3.org/1999/xlink" x="0px" y="0px"
	 viewBox="0 0 107.6 100" style="enable-background:new 0 0 107.6 100;" xml:space="preserve">
<style type="text/css">
	.st0{fill:url(#SVGID_1_);}
	.st1{fill:url(#SVGID_2_);}
	.st2{fill:url(#SVGID_3_);}
	.st3{fill:url(#SVGID_4_);}
	.st4{fill:url(#SVGID_5_);}
</style>
<g>
	<linearGradient id="SVGID_1_" gradientUnits="userSpaceOnUse" x1="1.0476" y1="14.0528" x2="100.3232" y2="60.3458">
		<stop  offset="0" style="stop-color:#2D2474"/>
		<stop  offset="0.18" style="stop-color:#5448B2"/>
		<stop  offset="0.46" style="stop-color:#3C96B5"/>
		<stop  offset="0.7" style="stop-color:#1BD4B7"/>
		<stop  offset="1" style="stop-color:#CCD90D"/>
	</linearGradient>
	<path class="st0" d="M30.7,42.8c-0.3,0.2-0.3,1.4-0.3,1.4v2.4c0,0,0,1-0.4,1c-0.4,0.1-0.7-0.7-0.7-0.7l-4.6-8.7
		c0,0-0.5-0.8-0.3-1.3c0.1-0.4,0.6-1.1,0.6-1.1l4.2-5.7c0,0,0.5-0.7,1-0.4c0.4,0.2,0.3,1.1,0.3,1.1s-0.2,2.1,0.3,3.2
		c0.5,1.1,0.9,1.5,0.9,1.5c7.1,7,17.4,11.6,29.1,11.6c11.1,0,21-4.2,28.6-11c0.5-0.4,0.7-0.6,1-0.5c0.4,0.2,0.4,1.2,0.4,1.2v3
		c0,0,0,0.9-0.3,1.5s-0.6,1.1-1.1,1.5c-7.5,6.9-17.5,11.1-28.6,11.1c-11.8,0-22.1-5-28.4-10.8C32.3,43.1,31.4,42.3,30.7,42.8z"/>
	<linearGradient id="SVGID_2_" gradientUnits="userSpaceOnUse" x1="-8.3052" y1="23.3663" x2="89.5095" y2="68.9781">
		<stop  offset="0" style="stop-color:#2D2474"/>
		<stop  offset="0.18" style="stop-color:#5448B2"/>
		<stop  offset="0.46" style="stop-color:#3C96B5"/>
		<stop  offset="0.7" style="stop-color:#1BD4B7"/>
		<stop  offset="1" style="stop-color:#CCD90D"/>
	</linearGradient>
	<path class="st1" d="M90.1,61.3c0.3,0.2,0.3,1.4,0.3,1.4v2.4c0,0,0,1,0.4,1c0.4,0.1,0.7-0.7,0.7-0.7l4.6-8.7c0,0,0.5-0.8,0.3-1.3
		c-0.1-0.4-0.6-1.1-0.6-1.1l-4.2-5.7c0,0-0.5-0.7-1-0.4c-0.4,0.2-0.3,1.1-0.3,1.1s0.2,2.1-0.3,3.2S89.3,54,89.3,54
		c-7.1,7-17.4,11.6-29.1,11.6c-11.1,0-21-4.2-28.6-11c-0.5-0.4-0.7-0.6-1-0.5c-0.4,0.2-0.4,1.2-0.4,1.2v3c0,0,0,0.9,0.3,1.5
		c0.2,0.7,0.6,1.1,1.1,1.5C39,68.2,49,72.4,60.1,72.4c11.8,0,22.1-5,28.4-10.8C88.6,61.6,89.5,60.8,90.1,61.3z"/>
	<linearGradient id="SVGID_3_" gradientUnits="userSpaceOnUse" x1="14.0714" y1="-2.4709" x2="113.1622" y2="43.7359">
		<stop  offset="0" style="stop-color:#2D2474"/>
		<stop  offset="0.18" style="stop-color:#5448B2"/>
		<stop  offset="0.46" style="stop-color:#3C96B5"/>
		<stop  offset="0.7" style="stop-color:#1BD4B7"/>
		<stop  offset="1" style="stop-color:#CCD90D"/>
	</linearGradient>
	<path class="st2" d="M96.5,23.8c0.1-0.5-0.3-1.3-0.3-1.3l-4.6-8.7c0,0-0.3-0.8-0.7-0.7c-0.4,0.1-0.4,1-0.4,1v2.4c0,0,0,1.2-0.3,1.4
		c-0.2,0.1-0.9-0.1-1.6-0.3c-8.9-3.6-21.2-8.7-26-10.8c-1.3-0.5-1.7-0.5-2-0.5s-0.8,0-2.1,0.5c-4.6,1.9-15.9,6.6-26.3,10.9
		c-0.5,0.2-0.8,0.3-1.2,0.9c-0.4,0.6-0.4,1.4-0.4,1.4v4c0,0-0.1,1.6,0.3,1.7c0.5,0.1,0.8-0.5,1.4-1C39.8,18,49.7,14,60.5,14
		c11.1,0,21.2,4.3,28.7,11.2c0.4,0.4,0.7,0.6,0.9,1.3c0.2,0.7,0.3,1.7,0.3,1.7l0.1,1.7c0,0-0.1,1,0.3,1.1c0.5,0.2,1-0.4,1-0.4
		l4.2-5.7C96,24.9,96.4,24.3,96.5,23.8z"/>
	<linearGradient id="SVGID_4_" gradientUnits="userSpaceOnUse" x1="-22.3966" y1="39.7957" x2="76.8109" y2="86.0569">
		<stop  offset="0" style="stop-color:#2D2474"/>
		<stop  offset="0.18" style="stop-color:#5448B2"/>
		<stop  offset="0.46" style="stop-color:#3C96B5"/>
		<stop  offset="0.7" style="stop-color:#1BD4B7"/>
		<stop  offset="1" style="stop-color:#CCD90D"/>
	</linearGradient>
	<path class="st3" d="M24.6,73.9c-0.1,0.5,0.3,1.3,0.3,1.3l4.6,8.7c0,0,0.3,0.8,0.7,0.7s0.4-1,0.4-1v-2.4c0,0,0-1.2,0.3-1.4
		c0.2-0.1,0.9,0.1,1.6,0.3c8.9,3.6,21.2,8.7,26,10.8c1.3,0.5,1.7,0.5,2,0.5s0.8,0,2.1-0.5C67.2,89,78.6,84.3,89,80
		c0.5-0.2,0.8-0.3,1.2-0.9c0.4-0.6,0.4-1.4,0.4-1.4v-4c0,0,0.1-1.6-0.3-1.7c-0.5-0.1-0.8,0.5-1.4,1c-7.5,6.7-17.4,10.7-28.2,10.7
		c-11.1,0-21.2-4.3-28.7-11.2c-0.4-0.4-0.7-0.6-0.9-1.3c-0.2-0.7-0.3-1.7-0.3-1.7l-0.1-1.7c0,0,0.1-1-0.3-1.1c-0.5-0.2-1,0.4-1,0.4
		l-4.2,5.7C25.2,72.8,24.7,73.4,24.6,73.9z"/>
	<linearGradient id="SVGID_5_" gradientUnits="userSpaceOnUse" x1="7.8183" y1="28.9896" x2="89.5405" y2="67.0973">
		<stop  offset="0" style="stop-color:#2D2474"/>
		<stop  offset="0.18" style="stop-color:#5448B2"/>
		<stop  offset="0.46" style="stop-color:#3C96B5"/>
		<stop  offset="0.7" style="stop-color:#1BD4B7"/>
		<stop  offset="1" style="stop-color:#CCD90D"/>
	</linearGradient>
	<path class="st4" d="M11.3,82c0,0-0.1,1.9,1.3,3.6c1.3,1.6,3.2,2.3,3.2,2.3l41.4,10.8c0,0,2,0.5,3.7,0.5s2.7-0.5,2.7-0.5l16.3-5.9
		c0,0,0.6-0.2,0.4-0.7c-0.1-0.5-0.7-0.3-0.7-0.3l-15.9,4.9c0,0-1.3,0.4-2.8,0.4c-1.6,0-2.5-0.4-2.5-0.4L25.3,84.9
		c0,0-1.7-0.6-2.5-1.6c-1-1.2-1.1-2.4-1.1-2.4V19.2c0,0,0-1.2,1.1-2.4c0.8-0.9,2.5-1.6,2.5-1.6L58.4,3.5c0,0,0.9-0.4,2.5-0.4
		s2.8,0.4,2.8,0.4l15.9,4.9c0,0,0.6,0.2,0.7-0.3s-0.4-0.7-0.4-0.7L63.6,1.5c0,0-1-0.5-2.7-0.5s-3.7,0.5-3.7,0.5L15.9,12.3
		c0,0-1.9,0.6-3.2,2.3c-1.4,1.7-1.3,3.6-1.3,3.6L11.3,82L11.3,82z"/>
</g>
</svg>
